<mxfile host="app.diagrams.net" modified="2021-04-09T09:15:48.072Z" agent="5.0 (Windows NT 6.1; Win64; x64) AppleWebKit/537.36 (KHTML, like Gecko) Chrome/89.0.4389.72 Safari/537.36" etag="46feW4d8wx3CHjFCXMos" version="14.2.9" type="github">
  <diagram name="Page-1" id="9361dd3d-8414-5efd-6122-117bd74ce7a7">
    <mxGraphModel dx="1414" dy="786" grid="1" gridSize="10" guides="1" tooltips="1" connect="1" arrows="1" fold="1" page="0" pageScale="1.5" pageWidth="826" pageHeight="1169" background="#ffffff" math="0" shadow="0">
      <root>
        <mxCell id="0" />
        <mxCell id="1" parent="0" />
        <mxCell id="69" value="" style="fillColor=#DEE8FF;strokeColor=none" parent="1" vertex="1">
          <mxGeometry x="80" y="20" width="850" height="670" as="geometry" />
        </mxCell>
        <mxCell id="4" value="IOT设备" style="shadow=1;fillColor=#A2C4C9;strokeColor=none" parent="1" vertex="1">
          <mxGeometry x="152.5" y="60" width="105" height="50" as="geometry" />
        </mxCell>
        <mxCell id="6" value="" style="fillColor=#CC4125;strokeColor=#660000" parent="1" vertex="1">
          <mxGeometry x="340" y="164.39" width="10" height="80" as="geometry" />
        </mxCell>
        <mxCell id="7" value="MQTT Broker&#xa;Clusters" style="shadow=1;fillColor=#A2C4C9;strokeColor=none" parent="1" vertex="1">
          <mxGeometry x="295" y="60" width="105" height="50" as="geometry" />
        </mxCell>
        <mxCell id="8" value="" style="edgeStyle=none;endArrow=none;dashed=1" parent="1" source="7" target="6" edge="1">
          <mxGeometry x="272.3350694444445" y="165" width="100" height="100" as="geometry">
            <mxPoint x="347.2588734567901" y="110" as="sourcePoint" />
            <mxPoint x="347.5761959876544" y="165" as="targetPoint" />
          </mxGeometry>
        </mxCell>
        <mxCell id="15" value="Kafka消息中间件" style="shadow=1;fillColor=#A2C4C9;strokeColor=none" parent="1" vertex="1">
          <mxGeometry x="440.00395061728386" y="59.99999999999997" width="105" height="50" as="geometry" />
        </mxCell>
        <mxCell id="19" value="2.透传" style="edgeStyle=elbowEdgeStyle;elbow=vertical;verticalLabelPosition=top;verticalAlign=bottom;exitX=0.75;exitY=1;exitDx=0;exitDy=0;entryX=0.25;entryY=0.015;entryDx=0;entryDy=0;entryPerimeter=0;" parent="1" source="6" target="17" edge="1">
          <mxGeometry x="350" y="290" width="100" height="100" as="geometry">
            <mxPoint x="350" y="390" as="sourcePoint" />
            <mxPoint x="480" y="244" as="targetPoint" />
          </mxGeometry>
        </mxCell>
        <mxCell id="22" value="南向服务" style="shadow=1;fillColor=#A2C4C9;strokeColor=none" parent="1" vertex="1">
          <mxGeometry x="600.22" y="60" width="105" height="50" as="geometry" />
        </mxCell>
        <mxCell id="23" value="" style="edgeStyle=none;endArrow=none;dashed=1" parent="1" source="cL849bSBCcsFNni7YfBv-117" edge="1">
          <mxGeometry x="592.2078472222224" y="174.99999999999997" width="100" height="100" as="geometry">
            <mxPoint x="652.3727777777779" y="110" as="sourcePoint" />
            <mxPoint x="653" y="660" as="targetPoint" />
          </mxGeometry>
        </mxCell>
        <mxCell id="24" value="设备/三方服务/云存储" style="shadow=1;fillColor=#A2C4C9;strokeColor=none" parent="1" vertex="1">
          <mxGeometry x="750" y="60" width="105" height="50" as="geometry" />
        </mxCell>
        <mxCell id="27" value="" style="edgeStyle=elbowEdgeStyle;elbow=vertical;verticalLabelPosition=top;verticalAlign=bottom" parent="1" source="17" target="21" edge="1">
          <mxGeometry x="517.72" y="270" width="100" height="100" as="geometry">
            <mxPoint x="517.72" y="370" as="sourcePoint" />
            <mxPoint x="617.72" y="270" as="targetPoint" />
            <Array as="points">
              <mxPoint x="567.72" y="270" />
            </Array>
          </mxGeometry>
        </mxCell>
        <mxCell id="cL849bSBCcsFNni7YfBv-101" value="3.Pull" style="edgeLabel;html=1;align=center;verticalAlign=middle;resizable=0;points=[];" vertex="1" connectable="0" parent="27">
          <mxGeometry relative="1" as="geometry">
            <mxPoint x="-2.5" y="-10" as="offset" />
          </mxGeometry>
        </mxCell>
        <mxCell id="33" value="" style="edgeStyle=elbowEdgeStyle;elbow=horizontal;endArrow=none;dashed=1" parent="1" source="4" edge="1">
          <mxGeometry x="230.00000000000003" y="310" width="100" height="100" as="geometry">
            <mxPoint x="230.00000000000003" y="410" as="sourcePoint" />
            <mxPoint x="205" y="220" as="targetPoint" />
          </mxGeometry>
        </mxCell>
        <mxCell id="44" value="" style="edgeStyle=none;dashed=1;endArrow=none" parent="1" edge="1">
          <mxGeometry x="50" y="300" width="100" height="100" as="geometry">
            <mxPoint x="205" y="210" as="sourcePoint" />
            <mxPoint x="205" y="660" as="targetPoint" />
          </mxGeometry>
        </mxCell>
        <mxCell id="52" value="" style="edgeStyle=none;endArrow=none;dashed=1" parent="1" source="6" edge="1">
          <mxGeometry x="376.5711805555559" y="339.6971450617284" width="100" height="100" as="geometry">
            <mxPoint x="451.7361111111112" y="284.6971450617284" as="sourcePoint" />
            <mxPoint x="347.11067838107215" y="660" as="targetPoint" />
          </mxGeometry>
        </mxCell>
        <mxCell id="cL849bSBCcsFNni7YfBv-89" value="1.上报消息" style="edgeStyle=none;verticalLabelPosition=top;verticalAlign=bottom;entryX=0.75;entryY=0;entryDx=0;entryDy=0;" edge="1" parent="1" target="6">
          <mxGeometry x="242.95524691358025" y="77.09550925925925" width="100" height="100" as="geometry">
            <mxPoint x="210" y="164" as="sourcePoint" />
            <mxPoint x="320" y="164.38563271604943" as="targetPoint" />
          </mxGeometry>
        </mxCell>
        <mxCell id="cL849bSBCcsFNni7YfBv-92" value="" style="edgeStyle=none;endArrow=none;dashed=1" edge="1" parent="1">
          <mxGeometry x="431.4878472222224" y="174.99999999999997" width="100" height="100" as="geometry">
            <mxPoint x="492" y="110" as="sourcePoint" />
            <mxPoint x="492" y="660" as="targetPoint" />
          </mxGeometry>
        </mxCell>
        <mxCell id="17" value="" style="fillColor=#CC4125;strokeColor=#660000" parent="1" vertex="1">
          <mxGeometry x="487.5" y="240" width="10" height="350" as="geometry" />
        </mxCell>
        <mxCell id="21" value="" style="fillColor=#CC4125;strokeColor=#660000" parent="1" vertex="1">
          <mxGeometry x="647.72" y="269.39" width="10" height="260.61" as="geometry" />
        </mxCell>
        <mxCell id="cL849bSBCcsFNni7YfBv-99" style="edgeStyle=orthogonalEdgeStyle;curved=1;rounded=0;orthogonalLoop=1;jettySize=auto;html=1;exitX=0.928;exitY=0.095;exitDx=0;exitDy=0;entryX=1;entryY=0.25;entryDx=0;entryDy=0;exitPerimeter=0;" edge="1" parent="1" source="21" target="21">
          <mxGeometry relative="1" as="geometry" />
        </mxCell>
        <mxCell id="cL849bSBCcsFNni7YfBv-102" value="4.查询符合Topic、&lt;br&gt;PK、DK等条件的&lt;br&gt;规则信息" style="edgeLabel;html=1;align=center;verticalAlign=middle;resizable=0;points=[];" vertex="1" connectable="0" parent="cL849bSBCcsFNni7YfBv-99">
          <mxGeometry x="-0.3144" y="-1" relative="1" as="geometry">
            <mxPoint x="53.3" y="13.48" as="offset" />
          </mxGeometry>
        </mxCell>
        <mxCell id="cL849bSBCcsFNni7YfBv-103" value="" style="edgeStyle=none;endArrow=none;dashed=1" edge="1" parent="1">
          <mxGeometry x="741.4878472222224" y="174.99999999999997" width="100" height="100" as="geometry">
            <mxPoint x="802" y="110" as="sourcePoint" />
            <mxPoint x="802" y="660" as="targetPoint" />
          </mxGeometry>
        </mxCell>
        <mxCell id="cL849bSBCcsFNni7YfBv-108" style="edgeStyle=orthogonalEdgeStyle;curved=1;rounded=0;orthogonalLoop=1;jettySize=auto;html=1;exitX=0.928;exitY=0.095;exitDx=0;exitDy=0;entryX=1;entryY=0.25;entryDx=0;entryDy=0;exitPerimeter=0;" edge="1" parent="1">
          <mxGeometry relative="1" as="geometry">
            <mxPoint x="657.72" y="350.04795" as="sourcePoint" />
            <mxPoint x="658.44" y="393.5425" as="targetPoint" />
            <Array as="points">
              <mxPoint x="678" y="350" />
              <mxPoint x="678" y="394" />
            </Array>
          </mxGeometry>
        </mxCell>
        <mxCell id="cL849bSBCcsFNni7YfBv-109" value="5.规则SQL 条件字段" style="edgeLabel;html=1;align=center;verticalAlign=middle;resizable=0;points=[];" vertex="1" connectable="0" parent="cL849bSBCcsFNni7YfBv-108">
          <mxGeometry x="-0.3144" y="-1" relative="1" as="geometry">
            <mxPoint x="53.3" y="13.48" as="offset" />
          </mxGeometry>
        </mxCell>
        <mxCell id="cL849bSBCcsFNni7YfBv-110" style="edgeStyle=orthogonalEdgeStyle;curved=1;rounded=0;orthogonalLoop=1;jettySize=auto;html=1;exitX=0.928;exitY=0.095;exitDx=0;exitDy=0;entryX=1;entryY=0.25;entryDx=0;entryDy=0;exitPerimeter=0;" edge="1" parent="1">
          <mxGeometry relative="1" as="geometry">
            <mxPoint x="657.72" y="398.27795000000003" as="sourcePoint" />
            <mxPoint x="658.44" y="441.77250000000004" as="targetPoint" />
            <Array as="points">
              <mxPoint x="678" y="398.23" />
              <mxPoint x="678" y="442.23" />
            </Array>
          </mxGeometry>
        </mxCell>
        <mxCell id="cL849bSBCcsFNni7YfBv-111" value="6.过滤规则SQL中&lt;br&gt;&amp;nbsp;where条件" style="edgeLabel;html=1;align=center;verticalAlign=middle;resizable=0;points=[];" vertex="1" connectable="0" parent="cL849bSBCcsFNni7YfBv-110">
          <mxGeometry x="-0.3144" y="-1" relative="1" as="geometry">
            <mxPoint x="53.3" y="13.48" as="offset" />
          </mxGeometry>
        </mxCell>
        <mxCell id="cL849bSBCcsFNni7YfBv-112" style="edgeStyle=orthogonalEdgeStyle;curved=1;rounded=0;orthogonalLoop=1;jettySize=auto;html=1;exitX=0.928;exitY=0.095;exitDx=0;exitDy=0;entryX=1;entryY=0.25;entryDx=0;entryDy=0;exitPerimeter=0;" edge="1" parent="1">
          <mxGeometry relative="1" as="geometry">
            <mxPoint x="657.72" y="448.23795" as="sourcePoint" />
            <mxPoint x="658.44" y="491.7325" as="targetPoint" />
            <Array as="points">
              <mxPoint x="678" y="448.19" />
              <mxPoint x="678" y="492.19" />
            </Array>
          </mxGeometry>
        </mxCell>
        <mxCell id="cL849bSBCcsFNni7YfBv-113" value="7.执行规则动作" style="edgeLabel;html=1;align=center;verticalAlign=middle;resizable=0;points=[];" vertex="1" connectable="0" parent="cL849bSBCcsFNni7YfBv-112">
          <mxGeometry x="-0.3144" y="-1" relative="1" as="geometry">
            <mxPoint x="53.3" y="13.48" as="offset" />
          </mxGeometry>
        </mxCell>
        <mxCell id="cL849bSBCcsFNni7YfBv-114" value="" style="edgeStyle=elbowEdgeStyle;elbow=vertical;dashed=1;verticalLabelPosition=bottom;verticalAlign=top;exitX=0.5;exitY=1;exitDx=0;exitDy=0;" edge="1" parent="1" source="21">
          <mxGeometry x="795" y="644.8418209876543" width="100" height="100" as="geometry">
            <mxPoint x="630" y="530" as="sourcePoint" />
            <mxPoint x="497.5" y="530" as="targetPoint" />
            <Array as="points" />
          </mxGeometry>
        </mxCell>
        <mxCell id="cL849bSBCcsFNni7YfBv-115" value="8.MQTT协议规则动作Publish" style="edgeLabel;html=1;align=center;verticalAlign=middle;resizable=0;points=[];" vertex="1" connectable="0" parent="cL849bSBCcsFNni7YfBv-114">
          <mxGeometry relative="1" as="geometry">
            <mxPoint x="-4.720000000000001" y="-10" as="offset" />
          </mxGeometry>
        </mxCell>
        <mxCell id="cL849bSBCcsFNni7YfBv-116" value="8.HTTP协议规则动作调用接口" style="edgeStyle=elbowEdgeStyle;elbow=vertical;verticalLabelPosition=top;verticalAlign=bottom" edge="1" parent="1">
          <mxGeometry x="660.22" y="529.0033333333333" width="100" height="100" as="geometry">
            <mxPoint x="657.72" y="529.0033333333333" as="sourcePoint" />
            <mxPoint x="800" y="529" as="targetPoint" />
            <Array as="points" />
          </mxGeometry>
        </mxCell>
        <mxCell id="cL849bSBCcsFNni7YfBv-117" value="" style="fillColor=#CC4125;strokeColor=#660000" vertex="1" parent="1">
          <mxGeometry x="647.72" y="570" width="10" height="40" as="geometry" />
        </mxCell>
        <mxCell id="cL849bSBCcsFNni7YfBv-118" value="" style="edgeStyle=none;endArrow=none;dashed=1" edge="1" parent="1" source="22" target="cL849bSBCcsFNni7YfBv-117">
          <mxGeometry x="592.2078472222224" y="174.99999999999997" width="100" height="100" as="geometry">
            <mxPoint x="652.7289514066497" y="110" as="sourcePoint" />
            <mxPoint x="653" y="867" as="targetPoint" />
          </mxGeometry>
        </mxCell>
        <mxCell id="cL849bSBCcsFNni7YfBv-119" value="9.Pull" style="edgeStyle=elbowEdgeStyle;elbow=vertical;verticalLabelPosition=top;verticalAlign=bottom;" edge="1" parent="1">
          <mxGeometry x="500.00000000000006" y="580.0033333333333" width="100" height="100" as="geometry">
            <mxPoint x="497.50000000000006" y="580.0033333333333" as="sourcePoint" />
            <mxPoint x="649" y="580" as="targetPoint" />
            <Array as="points">
              <mxPoint x="472.06" y="580" />
            </Array>
          </mxGeometry>
        </mxCell>
        <mxCell id="cL849bSBCcsFNni7YfBv-121" value="10.MQTT协议动作发布消息" style="edgeStyle=elbowEdgeStyle;elbow=vertical;verticalLabelPosition=top;verticalAlign=bottom" edge="1" parent="1">
          <mxGeometry x="660.22" y="609.0033333333333" width="100" height="100" as="geometry">
            <mxPoint x="657.72" y="609.0033333333333" as="sourcePoint" />
            <mxPoint x="800" y="609" as="targetPoint" />
            <Array as="points" />
          </mxGeometry>
        </mxCell>
        <mxCell id="cL849bSBCcsFNni7YfBv-122" value="规则引擎" style="shape=umlFrame;whiteSpace=wrap;html=1;" vertex="1" parent="1">
          <mxGeometry x="100" y="254.69" width="760" height="290" as="geometry" />
        </mxCell>
        <mxCell id="cL849bSBCcsFNni7YfBv-123" value="消息发布" style="shape=umlFrame;whiteSpace=wrap;html=1;" vertex="1" parent="1">
          <mxGeometry x="100" y="550" width="760" height="90" as="geometry" />
        </mxCell>
      </root>
    </mxGraphModel>
  </diagram>
</mxfile>
